<svg width="554" height="344" fill="none" xmlns="http://www.w3.org/2000/svg"><path d="M587.281 296.959c0 17.663-6.147 27.685-11.29 32.947-11.164 11.4-22.328 13.529-41.395 13.529H53.404c-19.193 0-30.231-2.004-41.396-13.529-5.143-5.262-11.29-15.158-11.29-32.947V101.158c0-17.664 6.147-27.686 11.29-32.947 11.165-11.4 22.329-13.53 41.396-13.53h481.192c19.192 0 30.231 2.005 41.395 13.53 5.143 5.261 11.29 15.158 11.29 32.822v195.926z" fill="#0D2333"/><path d="M22.796 78.734c-3.136 3.257-6.899 9.646-6.899 22.173v22.299c.125 1.127.878 2.756 3.512 3.006 3.764.251 8.656.752 12.419 4.385 2.76 2.756 4.39 6.514 4.265 10.397v115.001c0 3.883-1.505 7.641-4.265 10.397-3.763 3.758-8.78 4.134-12.419 4.385-2.76.125-3.387 1.754-3.512 3.006v22.925c0 12.527 3.763 18.916 6.9 22.173 7.4 7.517 14.425 8.895 30.481 8.895H534.47c16.056 0 23.207-1.378 30.482-8.895 3.136-3.257 6.899-9.646 6.899-22.173V100.907c0-12.527-3.763-18.916-6.899-22.173-7.401-7.517-14.426-8.895-30.482-8.895H53.404c-16.182 0-23.207 1.378-30.608 8.895z" fill="#040A0F"/><path d="M337.402 204.383l-15.053 15.032c-.878.877-2.383.877-3.261 0l-3.261-3.257c-.879-.877-.879-2.38 0-3.257l10.16-10.147-21.826-21.797c-.879-.877-.879-2.381 0-3.258l3.261-3.257c.878-.877 2.383-.877 3.261 0l26.719 26.683c.878.752.878 2.255 0 3.258z" fill="#89C142"/><path d="M363.049 238.124l6.652-3.973H374v-1.647h-4.299l-6.652-3.973v1.877l4.978 2.86v.118l-4.978 2.861v1.877zm11.117-13.146c0-2.316-1.695-3.829-4.235-3.829-2.556 0-4.251 1.513-4.251 3.829 0 2.315 1.695 3.828 4.251 3.828 2.54 0 4.235-1.513 4.235-3.828zm-1.342-.006c0 1.514-1.321 2.219-2.899 2.219-1.572 0-2.908-.705-2.908-2.219 0-1.502 1.336-2.208 2.908-2.208 1.578 0 2.899.706 2.899 2.208zm-2.23-10.81c1.395-.006 2.059 1.032 2.059 1.93 0 .989-.717 1.674-1.835 1.674h-5.031v1.599h5.224c2.037 0 3.096-1.118 3.096-2.695 0-1.236-.652-2.075-1.529-2.455v-.085H374v-1.572h-8.213v1.604h4.807zm3.406-3.753v-1.598h-5.016c-1.074 0-1.85-.829-1.85-1.963 0-.331.059-.706.096-.834h-1.529c-.021.16-.037.476-.037.679 0 .963.545 1.786 1.427 2.085v.086h-1.304v1.545H374zm-10.951-11.362v1.598H374v-1.598h-10.951zm11.117-5.611c0-2.315-1.695-3.828-4.235-3.828-2.556 0-4.251 1.513-4.251 3.828s1.695 3.829 4.251 3.829c2.54 0 4.235-1.514 4.235-3.829zm-1.342-.005c0 1.513-1.321 2.219-2.899 2.219-1.572 0-2.908-.706-2.908-2.219 0-1.503 1.336-2.209 2.908-2.209 1.578 0 2.899.706 2.899 2.209zm1.358-7.998c0-1.358-.69-2.123-1.305-2.428v-.064H374v-1.561h-5.454c-2.39 0-2.866 1.882-2.866 3.186 0 1.487.599 2.856 2.096 3.391l.342-1.503c-.583-.235-1.144-.834-1.144-1.909 0-1.032.54-1.561 1.47-1.561h.038c.583 0 .572.599.743 2.074.182 1.556.588 3.15 2.454 3.15 1.615 0 2.503-1.214 2.503-2.775zm-1.284-.348c0 .904-.406 1.556-1.197 1.556-.856 0-1.161-.759-1.284-1.684-.069-.519-.208-1.749-.438-1.979h1.059c.973 0 1.86.776 1.86 2.107zm-3.775-7.434c-1.31 0-2.058-.802-2.058-1.914 0-1.085.711-1.743 1.903-1.743H374v-1.599h-5.224c-2.032 0-3.096 1.118-3.096 2.797 0 1.235.572 2.042 1.444 2.422v.101h-1.337v1.535H374v-1.599h-4.877zM374 166.266v-1.599h-8.213v1.599H374zm-9.481-.808c0-.55-.427-1.01-.951-1.01s-.957.46-.957 1.01c0 .557.433 1.011.957 1.011s.951-.454.951-1.011zm3.273-9.096c-1.278.331-2.112 1.331-2.112 3.106 0 1.856.978 3.171 2.433 3.171 1.165 0 1.941-.706 2.283-2.246l.305-1.39c.176-.791.529-1.16 1.042-1.16.637 0 1.134.679 1.134 1.727 0 .957-.412 1.572-1.219 1.764l.235 1.546c1.455-.268 2.273-1.476 2.273-3.321 0-1.984-1.054-3.358-2.54-3.358-1.16 0-1.877.738-2.225 2.246l-.299 1.305c-.214.903-.519 1.294-1.075 1.288-.631.006-1.08-.679-1.08-1.588 0-.994.551-1.454 1.102-1.641l-.257-1.449zm58.446 81.879v1.563h-.593c-.588 0-.916-.245-.916-.906 0-.28.063-.515.107-.662l-1.372-.358c-.078.23-.206.735-.206 1.348 0 1.309.75 2.353 2.27 2.353h.71v1.112h1.373v-1.112h6.156v-1.775h-6.156v-1.563h-1.373z" fill="#fff"/><path d="M405.776 248.77l-3.33-1.084v-5.269l3.33-1.083v-3.308l-14.601 5.033v3.978l14.601 5.041v-3.308zm-5.739-1.868l-5.526-1.797v-.114l5.526-1.796v3.707zm5.739-10.634v-3.087h-4.734v-2.595c0-3.358-2.004-5.312-4.92-5.312-2.901 0-4.947 1.918-4.947 5.234v5.76h14.601zm-7.208-3.087h-4.87v-2.082c0-1.782.97-2.645 2.424-2.645 1.448 0 2.446.863 2.446 2.631v2.096zm7.208-9.912v-3.087h-4.734v-2.595c0-3.358-2.004-5.312-4.92-5.312-2.901 0-4.947 1.918-4.947 5.234v5.76h14.601zm-7.208-3.087h-4.87V218.1c0-1.782.97-2.645 2.424-2.645 1.448 0 2.446.863 2.446 2.631v2.096zm7.208-9.912v-3.087H400.6v-2.253l5.176-2.766v-3.408l-5.675 3.101c-.713-1.661-2.161-2.581-4.157-2.581-2.902 0-4.769 1.918-4.769 5.234v5.76h14.601zm-7.657-3.087h-4.421v-2.082c0-1.782.792-2.645 2.246-2.645 1.448 0 2.175.863 2.175 2.631v2.096zm.356-23.42c-4.777 0-7.5 2.966-7.5 6.837 0 3.893 2.723 6.837 7.5 6.837 4.756 0 7.501-2.944 7.501-6.837 0-3.871-2.724-6.837-7.501-6.837zm0 3.13c3.094 0 4.77 1.468 4.77 3.707 0 2.246-1.676 3.707-4.77 3.707-3.094 0-4.769-1.461-4.769-3.707 0-2.239 1.675-3.707 4.769-3.707zm-7.3-7.207v3.429l14.601-5.041v-3.978l-14.601-5.033v3.422l11.093 3.536v.136l-11.093 3.529zm14.601-12.381v-9.867h-2.545v6.78h-3.487v-6.245h-2.545v6.245h-3.479v-6.751h-2.545v9.838h14.601zm0-17.469c0-4.449-2.752-7.144-7.315-7.144-4.549 0-7.286 2.695-7.286 7.101v5.219h14.601v-5.176zm-2.645 2.089h-9.311v-1.968c0-2.737 1.397-4.185 4.641-4.185 3.258 0 4.67 1.448 4.67 4.192v1.961z" fill="#89C142"/><path d="M64.066 200.374H271.42a2.514 2.514 0 012.509 2.505v7.015a2.515 2.515 0 01-2.509 2.506H64.066a2.515 2.515 0 01-2.508-2.506v-7.015a2.514 2.514 0 012.508-2.505z" fill="#0D2333"/><path d="M78.618 283.681V12.591c0-5.011 4.014-9.02 8.906-9.02h160.815c4.893 0 8.907 4.009 8.907 9.02v271.09c0 4.885-4.014 9.019-8.907 9.019H87.524c-4.892 0-8.906-4.009-8.906-9.019z" fill="#040A0F"/><path d="M78.618 283.681V12.591c0-5.011 4.014-9.02 8.906-9.02h160.815c4.893 0 8.907 4.009 8.907 9.02v271.09c0 4.885-4.014 9.019-8.907 9.019H87.524c-4.892 0-8.906-4.009-8.906-9.019z" stroke="#0D2333" stroke-width="6.274" stroke-miterlimit="10"/><path d="M78.618 284.182V13.092c0-4.885 4.014-9.02 8.906-9.02h160.815c4.893 0 8.907 4.01 8.907 9.02v271.09c0 4.886-4.014 9.02-8.907 9.02H87.649a8.988 8.988 0 01-9.031-9.02z" fill="#040A0F"/><path opacity=".8" d="M137.701 264.388c-4.892-14.155-15.931-25.305-30.231-30.19-1.004-.376-1.757-1.378-1.757-2.381V66.457c0-1.127.628-2.13 1.757-2.38 14.174-4.885 25.339-15.91 30.231-30.19.376-1.002 1.38-1.754 2.383-1.754h55.32c1.129 0 2.132.626 2.383 1.754 4.892 14.155 15.931 25.305 30.231 30.19 1.004.376 1.757 1.378 1.757 2.38v165.36c0 1.128-.628 2.13-1.757 2.381-14.174 4.76-25.339 15.909-30.231 30.19-.376 1.003-1.38 1.754-2.383 1.754h-55.32c-1.129-.125-2.132-.751-2.383-1.754z" fill="#040A0F" stroke="#0D2333" stroke-width="2.51" stroke-miterlimit="10"/><path opacity=".6" d="M167.806 183.462c19.052 0 34.497-15.423 34.497-34.45 0-19.026-15.445-34.45-34.497-34.45-19.051 0-34.496 15.424-34.496 34.45 0 19.027 15.445 34.45 34.496 34.45z" fill="#0D2333"/><path d="M167.806 231.693c3.81 0 6.899-3.085 6.899-6.89 0-3.806-3.089-6.89-6.899-6.89s-6.899 3.084-6.899 6.89c0 3.805 3.089 6.89 6.899 6.89z" fill="#79A641"/><path opacity=".6" d="M167.806 84.622c6.235 0 11.29-5.047 11.29-11.274 0-6.227-5.055-11.275-11.29-11.275-6.235 0-11.289 5.048-11.289 11.275s5.054 11.274 11.289 11.274z" fill="#0D2333"/><path opacity=".3" d="M160.154 141.495c-.125.126-.125.251-.125.501v3.383c-1.004.25-2.007.626-2.885 1.253v-4.51c0-.376-.251-.627-.627-.627h-1.882c-.376 0-.627.251-.627.627v16.285c0 .125 0 .376.125.501.126.126.251.126.502.126h2.634c.126 0 .377-.126.502-.126.125-.125.125-.25.125-.501v-2.881c0-2.756.753-4.51 2.258-5.262v8.018c0 .125 0 .376.126.501.125.125.251.125.502.125h2.007c.125 0 .376 0 .501-.125.126-.125.126-.251.126-.501v-8.393c1.129.25 2.007 1.002 2.509 2.004.627 1.253.878 2.756.878 4.134v2.255c0 .376.251.626.627.626h2.509c.125 0 .251-.125.376-.125 2.634-2.505 6.398-5.763 11.164-9.771.126-.126.251-.251.251-.501v-3.759c0-.25-.125-.501-.376-.501-.251-.125-.502-.125-.627.126-4.642 3.758-8.154 6.764-10.537 9.019a9.295 9.295 0 00-2.133-5.386c-1.129-1.378-2.76-2.255-4.641-2.506v-3.257c0-.125 0-.376-.126-.501-.125-.125-.25-.125-.501-.125h-2.007c-.126-.251-.377-.251-.628-.126z" fill="#89C142"/><path d="M433.914 234.86c0-2.206-1.554-3.608-3.882-3.608-2.333 0-3.892 1.402-3.892 3.608 0 2.206 1.559 3.607 3.892 3.607 2.328 0 3.882-1.401 3.882-3.607zm-1.421-.01c0 1.221-1.088 1.819-2.466 1.819-1.377 0-2.48-.598-2.48-1.819 0-1.201 1.103-1.799 2.48-1.799 1.378 0 2.466.598 2.466 1.799zm1.274-5.104v-1.774h-4.426c-.956 0-1.632-.721-1.632-1.696 0-.299.054-.671.103-.823h-1.633a4.305 4.305 0 00-.049.637c0 .862.491 1.583 1.363 1.857v.079h-1.255v1.72h7.529zm0-19.148v-6.881h-1.519v4.372h-.069l-1.76-1.73c-1.872-1.951-2.784-2.49-3.916-2.49-1.681 0-2.912 1.367-2.912 3.387 0 1.99 1.236 3.401 3.142 3.401v-1.73c-1.024 0-1.666-.647-1.666-1.647 0-.956.583-1.667 1.529-1.667.838 0 1.436.51 2.441 1.5l3.416 3.485h1.314zm.137-12.062c0-2.123-1.441-3.603-3.436-3.603-1.931 0-3.323 1.343-3.323 3.166 0 .814.324 1.535.765 1.907v.059l-2.662-.289v-4.319h-1.519v5.823l5.176.525.269-1.642c-.372-.338-.622-.975-.617-1.578.005-1.103.818-1.897 1.955-1.892 1.123-.005 1.922.769 1.922 1.843 0 .906-.574 1.637-1.397 1.7v1.765c1.666-.049 2.867-1.505 2.867-3.465zm-10.175-10.463v1.775h10.038v-1.775h-10.038zm10.19-3.991c0-1.181-.554-1.887-1.186-2.211v-.058h1.034v-1.706h-5.039c-1.99 0-2.588 1.622-2.588 3.059 0 1.583.706 2.798 2.079 3.19l.235-1.656c-.515-.177-.956-.677-.956-1.544 0-.824.422-1.275 1.162-1.275h.029c.51 0 .534.535.676 1.863.157 1.461.594 2.858 2.29 2.858 1.48 0 2.264-1.084 2.264-2.52zm-1.304-.461c0 .74-.338 1.27-.99 1.27-.681 0-.966-.593-1.078-1.387-.064-.466-.182-1.397-.368-1.628h.887c.838 0 1.549.677 1.549 1.745zm1.152-5.298v-1.775h-2.529l-.691-.647 3.22-2.303v-2.123l-4.279 3.088-3.25-2.916v2.073l3.025 2.706v.122h-5.534v1.775h10.038zm-4.411-9.633c-1.088 0-1.716-.676-1.716-1.627 0-.932.593-1.481 1.608-1.481h4.519v-1.774h-4.794c-1.818 0-2.833 1.029-2.833 2.593 0 1.157.525 1.892 1.378 2.24v.088h-3.789v1.735h10.038v-1.774h-4.411zm-1.128-12.641c-1.274.245-2.088 1.264-2.088 3.029 0 1.814.892 3.049 2.284 3.044 1.098.005 1.824-.672 2.123-2.118l.269-1.284c.152-.691.432-1.014.858-1.014.515 0 .902.558.902 1.401 0 .814-.353 1.343-1.029 1.495l.166 1.731c1.383-.221 2.201-1.383 2.201-3.231 0-1.882-.975-3.21-2.402-3.215-1.073.005-1.73.696-2.039 2.118l-.274 1.284c-.172.764-.436 1.068-.873 1.063-.509.005-.862-.558-.862-1.299 0-.818.446-1.249.941-1.387l-.177-1.617zm5.647-2.58a1.09 1.09 0 00-1.078-1.078c-.589.004-1.069.5-1.069 1.078 0 .598.48 1.083 1.069 1.078a1.071 1.071 0 001.078-1.078zm-7.786 59.305v1.253c-.376.125-.753.25-1.004.501v-1.629a.269.269 0 00-.25-.25h-.753c-.126 0-.251.125-.251.25v5.888h1.129s.125-.125 0-.125v-1.002c0-1.002.251-1.629.753-1.879v3.006h1.003v-3.132c.377.126.753.376.878.752.251.501.377 1.002.251 1.503v.752c0 .125.126.251.251.251h1.004c1.003-.877 2.258-2.005 4.014-3.508l.125-.125v-1.378c0-.126 0-.126-.125-.251h-.251c-1.631 1.378-2.885 2.38-3.763 3.132 0-.752-.377-1.378-.753-1.879-.376-.501-1.004-.752-1.631-.877v-1.128c0-.125-.125-.25-.251-.25l-.376.125c0-.125 0 0 0 0z" fill="#fff"/></svg>